<svg width="19" height="19" viewBox="0 0 19 19" fill="none" xmlns="http://www.w3.org/2000/svg">
<path d="M8.70834 1.58325H7.12501C3.16668 1.58325 1.58334 3.16659 1.58334 7.12492V11.8749C1.58334 15.8333 3.16668 17.4166 7.12501 17.4166H11.875C15.8333 17.4166 17.4167 15.8333 17.4167 11.8749V10.2916" stroke="#989898" stroke-width="1.5" stroke-linecap="round" stroke-linejoin="round"/>
<path d="M12.6983 2.39091L6.46 8.62924C6.2225 8.86674 5.985 9.33383 5.9375 9.67425L5.59708 12.0572C5.47041 12.9201 6.08 13.5217 6.94291 13.403L9.32583 13.0626C9.65833 13.0151 10.1254 12.7776 10.3708 12.5401L16.6092 6.30174C17.6858 5.22508 18.1925 3.97424 16.6092 2.39091C15.0258 0.807578 13.775 1.31424 12.6983 2.39091Z" stroke="#989898" stroke-width="1.5" stroke-miterlimit="10" stroke-linecap="round" stroke-linejoin="round"/>
<path d="M11.8037 3.2854C12.3342 5.17748 13.8146 6.6579 15.7146 7.19623" stroke="#989898" stroke-width="1.5" stroke-miterlimit="10" stroke-linecap="round" stroke-linejoin="round"/>
</svg>
